<svg width="512" height="512" xmlns="http://www.w3.org/2000/svg" xmlns:svg="http://www.w3.org/2000/svg" xmlns:xlink="http://www.w3.org/1999/xlink">
 <g class="layer">
  <title>Investor</title>
  <path d="m384,336c-40.6,0 -47.6,-1.5 -72.2,6.8c-17.5,5.9 -36.3,9.2 -55.8,9.2s-38.3,-3.3 -55.8,-9.2c-24.6,-8.3 -31.5,-6.8 -72.2,-6.8c-70.7,0 -128,57.3 -128,128l0,16c0,17.7 14.3,32 32,32l448,0c17.7,0 32,-14.3 32,-32l0,-16c0,-70.7 -57.3,-128 -128,-128zm80,128l-416,0c0,-21.4 8.3,-41.5 23.4,-56.6c15.1,-15.1 35.2,-23.4 56.6,-23.4c41.1,0 41,-1.1 56.8,4.2c23,7.8 47,11.8 71.2,11.8c24.2,0 48.2,-4 71.2,-11.8c15.8,-5.4 15.7,-4.2 56.8,-4.2c44.1,0 80,35.9 80,80zm-208,-144c88.4,0 160,-71.6 160,-160s-71.6,-160 -160,-160s-160,71.6 -160,160s71.6,160 160,160zm0,-272c61.8,0 112,50.2 112,112s-50.2,112 -112,112s-112,-50.2 -112,-112s50.2,-112 112,-112z" fill="#003f7f" id="svg_1"/>
  <use fill="#ff7f00" id="svg_3" transform="matrix(0.344086 0 0 0.344086 0 0)" x="488.25" xlink:href="#svg_2" y="215.0625"/>
  <g id="svg_4"/>
 </g>
 <defs>
  <symbol id="svg_2" viewBox="0 0 496 512" xmlns="http://www.w3.org/2000/svg">
   <path d="m248,8c-136.97,0 -248,111.03 -248,248s111.03,248 248,248s248,-111.03 248,-248s-111.03,-248 -248,-248zm0,376c-17.67,0 -32,-14.33 -32,-32s14.33,-32 32,-32s32,14.33 32,32s-14.33,32 -32,32zm0,-128c-53.02,0 -96,42.98 -96,96s42.98,96 96,96c-106.04,0 -192,-85.96 -192,-192s85.96,-192 192,-192c53.02,0 96,42.98 96,96s-42.98,96 -96,96zm0,-128c-17.67,0 -32,14.33 -32,32s14.33,32 32,32s32,-14.33 32,-32s-14.33,-32 -32,-32z"/>
  </symbol>
 </defs>
</svg>