<svg width="544" height="512" xmlns="http://www.w3.org/2000/svg" xmlns:svg="http://www.w3.org/2000/svg" xmlns:xlink="http://www.w3.org/1999/xlink">
 <g class="layer">
  <title>brain+acorn+tree</title>
  <path d="m509.65,230.28c17.51,-54.46 -20.08,-93.16 -41.06,-105.31c2.67,-37.66 -25.86,-74.32 -66.68,-79.39c-11.95,-27.35 -39.11,-45.58 -69.69,-45.58c-24.59,0 -46.26,11.85 -60.22,29.9c-13.96,-18.05 -35.63,-29.9 -60.22,-29.9c-30.58,0 -57.74,18.23 -69.7,45.58c-40.82,5.07 -69.35,41.73 -66.68,79.39c-20.98,12.16 -58.56,50.85 -41.06,105.31c-21.45,17.14 -34.34,43.16 -34.34,70.72c0,32.73 17.41,62.38 45.26,78.53c-2.28,48.18 36.69,88.69 84.94,87.45c14.24,27.38 42.59,45.02 74.05,45.02c27.9,0 52.51,-13.8 67.75,-34.76c15.24,20.96 39.85,34.76 67.75,34.76c31.46,0 59.81,-17.64 74.05,-45.02c48.25,1.24 87.21,-39.28 84.94,-87.45c27.85,-16.15 45.26,-45.8 45.26,-78.53c0,-27.56 -12.89,-53.58 -34.35,-70.72zm-253.71,-92.21c0,26.09 -18.06,47.88 -42.35,54.04c-3.47,0.88 -5.83,4.09 -5.83,7.66l0,16.18c0,5.07 4.69,8.91 9.68,7.89c14.43,-2.94 27.54,-9.41 38.5,-18.39l0,223.05c0,28.39 -23.18,51.5 -51.69,51.5c-31.89,0 -44.23,-21.81 -53.1,-48.2c-16.29,2.74 -18.29,3.2 -22.18,3.2c-28.51,0 -51.69,-23.11 -51.69,-51.5c0,-6.21 0.86,-9.14 3.67,-22.97c-25.44,-10.5 -48.84,-24.21 -48.84,-59.53c0,-33.86 23.01,-46.95 42.91,-58.34c-12.6,-25.71 -12.8,-29.2 -12.8,-39.16c0,-33.91 21.9,-48.46 49.37,-59.69c-2.51,-10.9 -4.2,-16.61 -4.2,-22.81c0,-24.14 19.6,-43.8 45.48,-43.8l0.41,0l12.73,0.27c5.91,-22.95 15.03,-45.47 45.77,-45.47c24.34,0 44.16,19.73 44.16,44l0,62.07zm207.11,222.46c2.81,13.83 3.67,16.76 3.67,22.97c0,28.39 -23.18,51.5 -51.69,51.5c-3.88,0 -5.88,-0.46 -22.18,-3.2c-8.87,26.39 -21.21,48.2 -53.1,48.2c-28.51,0 -51.69,-23.11 -51.69,-51.5l0,-223.05c10.96,8.98 24.07,15.45 38.5,18.39c4.99,1.02 9.68,-2.82 9.68,-7.89l0,-16.18c0,-3.57 -2.36,-6.78 -5.83,-7.66c-24.29,-6.16 -42.35,-27.95 -42.35,-54.04l0,-62.07c0,-24.27 19.82,-44 44.16,-44c30.74,0 39.86,22.52 45.76,45.47l12.73,-0.27l0.41,0c25.88,0 45.48,19.66 45.48,43.8c0,6.2 -1.7,11.92 -4.2,22.81c27.46,11.22 49.37,25.78 49.37,59.69c0,9.96 -0.2,13.45 -12.8,39.16c19.9,11.39 42.91,24.48 42.91,58.34c0,35.33 -23.39,49.04 -48.83,59.53z" fill="#ff7f00" id="svg_1"/>
  <use fill="#7f3f00" id="svg_3" transform="matrix(0.190857 0 0 0.190857 143.706 312.748)" x="-235.77915" xlink:href="#svg_2" y="-183.38378"/>
  <g id="svg_4"/>
  <use fill="#007f00" id="svg_6" transform="matrix(0.246461 0 0 0.246461 121.709 107.549)" x="780.73627" xlink:href="#svg_5" y="613.44906"/>
  <g id="svg_7"/>
 </g>
 <defs>
  <symbol id="svg_2" viewBox="0 0 448 512" xmlns="http://www.w3.org/2000/svg">
   <path d="m352,64l-100.5,0c3.4,-9.4 8.47,-18.18 15.16,-26.04c5.56,-6.52 5.31,-15.91 -0.62,-21.86l-11.35,-11.32c-3.12,-3.16 -7.72,-5.14 -11.97,-4.72c-4.38,0.14 -8.5,2.08 -11.31,5.3c-14.75,16.8 -24.55,37.06 -29.39,58.65l-106.02,0c-53.02,0 -96,42.98 -96,96l0,32c0,17.67 14.33,32 32,32l0,32c0,98.06 55.4,187.7 143.11,231.55l48.89,24.44l48.89,-24.45c87.71,-43.85 143.11,-133.49 143.11,-231.55l0,-32c17.67,0 32,-14.33 32,-32l0,-32c0,-53.02 -42.98,-96 -96,-96zm-304,96c0,-26.47 21.53,-48 48,-48l256,0c26.47,0 48,21.53 48,48l0,16l-352,0l0,-16zm320,96c0,80.39 -44.67,152.67 -116.57,188.62l-27.43,13.71l-27.43,-13.71c-71.9,-35.95 -116.57,-108.23 -116.57,-188.62l0,-32l288,0l0,32z"/>
  </symbol>
  <symbol id="svg_5" viewBox="0 0 512 512" xmlns="http://www.w3.org/2000/svg">
   <path d="m463.16,198.09a94.96,94.96 0 0 0 2.44,-21.36c0,-58.56 -51.97,-105.42 -111.06,-99.91c-10.73,-44.01 -50.85,-76.82 -98.54,-76.82s-87.81,32.81 -98.53,76.83c-59.09,-5.52 -111.06,41.34 -111.06,99.91c0,7.19 0.81,14.33 2.44,21.36c-29.97,17.79 -48.85,49.76 -48.85,85.54c0,55.34 45.47,100.36 101.34,100.36l122.66,0l0,56.45l-30.29,48.4c-5.32,10.64 2.42,23.16 14.31,23.16l95.96,0c11.89,0 19.63,-12.52 14.31,-23.16l-30.29,-48.4l0,-56.45l122.66,0c55.87,0 101.34,-45.02 101.34,-100.36c0,-35.78 -18.88,-67.75 -48.84,-85.55zm-52.5,137.91l-309.32,0c-29.4,0 -53.34,-23.48 -53.34,-52.36c0,-22.95 15.22,-42.95 37.84,-49.75l27.59,-8.28l-13.12,-25.64c-3.94,-7.64 -5.91,-15.45 -5.91,-23.23c0,-28.88 23.91,-52.38 53.31,-52.38c7.41,0 14.78,1.61 21.94,4.77l37.53,16.66l-4.53,-45.42c0.01,-28.89 23.94,-52.37 53.35,-52.37s53.34,23.48 53.19,53.38l-4.38,44.41l37.53,-16.66c35.59,-15.72 75.25,11.45 75.25,47.61c0,7.78 -1.97,15.59 -5.91,23.23l-13.12,25.64l27.59,8.28c22.62,6.8 37.84,26.8 37.84,49.75c0.01,28.88 -23.93,52.36 -53.33,52.36z"/>
  </symbol>
 </defs>
</svg>