<?xml version="1.0" standalone="no"?>
<!DOCTYPE svg PUBLIC "-//W3C//DTD SVG 20010904//EN"
 "http://www.w3.org/TR/2001/REC-SVG-20010904/DTD/svg10.dtd">
<svg version="1.0" xmlns="http://www.w3.org/2000/svg"
 width="700.000000pt" height="700.000000pt" viewBox="0 0 700.000000 700.000000"
 preserveAspectRatio="xMidYMid meet">
<metadata>
Created by potrace 1.11, written by Peter Selinger 2001-2013
</metadata>
<g transform="translate(0.000000,700.000000) scale(0.100000,-0.100000)"
fill="#000000" stroke="none">
<path d="M3280 6990 c-112 -13 -182 -26 -305 -55 -381 -91 -726 -286 -1016
-575 -366 -363 -590 -837 -636 -1341 -11 -121 -8 -369 6 -474 46 -343 165
-664 349 -940 44 -66 88 -129 98 -140 11 -11 31 -36 45 -55 28 -36 193 -206
245 -251 64 -55 196 -152 280 -204 92 -58 304 -165 327 -165 7 0 17 -4 23 -9
5 -4 45 -21 89 -36 373 -127 757 -152 1145 -75 818 163 1465 771 1684 1581 14
52 28 110 31 129 3 19 10 59 15 88 40 225 31 575 -22 807 -69 307 -201 595
-385 844 -104 140 -302 339 -437 440 -296 220 -631 361 -991 416 -120 19 -438
27 -545 15z m340 -654 c87 -6 94 -7 219 -32 122 -25 408 -138 419 -166 2 -4 8
-8 14 -8 5 0 51 -28 101 -62 102 -70 259 -220 335 -318 47 -61 142 -205 142
-215 0 -2 18 -41 39 -87 48 -101 74 -176 100 -288 29 -124 36 -188 36 -350 0
-176 -10 -253 -51 -403 -130 -471 -477 -852 -934 -1026 -56 -22 -230 -69 -285
-77 -164 -25 -341 -25 -520 1 -17 2 -57 11 -90 20 -33 9 -68 18 -77 20 -9 2
-47 15 -85 28 -538 196 -918 666 -1001 1240 -9 68 -9 326 1 402 60 457 339
877 742 1117 133 80 361 164 495 184 19 3 41 7 48 9 8 3 57 8 110 11 53 4 98
8 100 9 2 2 15 1 30 -1 15 -2 65 -6 112 -8z"/>
<path d="M3379 5946 c-2 -2 -29 -7 -59 -10 -144 -17 -344 -91 -474 -174 -191
-123 -347 -298 -440 -495 -37 -80 -83 -223 -91 -287 -4 -29 -9 -62 -11 -74 -2
-12 -4 -67 -5 -122 -1 -434 249 -834 648 -1033 124 -62 254 -104 363 -117 30
-3 58 -8 62 -10 4 -3 49 -5 100 -5 356 0 650 116 891 353 357 353 442 895 209
1340 -171 328 -490 555 -876 622 -67 12 -308 20 -317 12z m220 -270 c122 -28
223 -96 289 -196 119 -177 96 -407 -55 -556 -86 -86 -184 -128 -323 -139 -139
-12 -210 -36 -295 -101 -65 -49 -89 -79 -124 -149 -48 -97 -51 -107 -52 -200
-2 -195 145 -391 321 -430 17 -4 33 -11 36 -17 4 -6 3 -9 -2 -6 -5 4 -27 9
-49 12 -335 53 -620 292 -727 609 -36 110 -43 154 -43 287 0 121 6 158 36 255
81 264 288 480 556 581 134 51 329 73 432 50z m-19 -1218 c73 -50 93 -117 57
-189 -83 -165 -337 -65 -282 111 27 87 149 129 225 78z"/>
<path d="M3485 5385 c-5 -2 -21 -6 -35 -9 -72 -16 -122 -116 -93 -186 28 -70
75 -101 150 -102 147 0 203 196 78 271 -30 18 -81 31 -100 26z"/>
<path d="M1698 2404 c-2 -1 -35 -4 -73 -5 -133 -4 -348 -51 -496 -108 -483
-186 -853 -566 -1029 -1056 -28 -76 -66 -225 -75 -290 -19 -136 -22 -183 -23
-366 -2 -263 21 -341 128 -449 58 -58 110 -87 195 -112 57 -17 227 -18 3175
-17 3376 0 3157 -3 3269 54 103 51 192 171 221 295 14 63 5 472 -13 586 -73
449 -322 855 -692 1129 -176 129 -378 226 -595 283 -79 21 -95 24 -230 44 -98
14 -721 17 -843 5 -91 -10 -209 -38 -397 -95 -377 -116 -730 -141 -1105 -82
-109 18 -160 30 -350 87 -155 46 -277 76 -355 88 -45 7 -706 16 -712 9z m727
-681 c39 -11 122 -36 185 -56 104 -31 179 -51 235 -63 11 -2 29 -6 40 -9 11
-2 31 -6 45 -9 240 -53 683 -67 945 -31 219 29 356 61 610 141 61 19 128 38
150 42 55 10 707 9 775 -1 147 -21 316 -87 448 -175 272 -181 460 -502 479
-817 l6 -90 -2839 1 c-1562 1 -2842 2 -2846 3 -4 1 -6 7 -3 13 2 7 6 48 9 90
14 179 97 398 207 543 113 150 289 290 437 350 37 15 74 30 82 34 18 9 134 37
205 50 28 5 210 8 405 7 327 -2 360 -4 425 -23z"/>
</g>
</svg>
