<?xml version="1.0" standalone="no"?>
<!DOCTYPE svg PUBLIC "-//W3C//DTD SVG 20010904//EN"
 "http://www.w3.org/TR/2001/REC-SVG-20010904/DTD/svg10.dtd">
<svg version="1.0" xmlns="http://www.w3.org/2000/svg"
 width="544.000000pt" height="544.000000pt" viewBox="0 0 544.000000 544.000000"
 preserveAspectRatio="xMidYMid meet">
<metadata>
Created by potrace 1.11, written by Peter Selinger 2001-2013
</metadata>
<g transform="translate(0.000000,544.000000) scale(0.100000,-0.100000)"
fill="#000000" stroke="none">
<path d="M2029 5276 c-2 -2 -20 -6 -39 -9 -113 -18 -254 -77 -325 -137 -75
-64 -135 -125 -161 -163 -16 -23 -32 -43 -36 -45 -5 -2 -8 -12 -8 -23 0 -10
-3 -19 -8 -19 -4 0 -13 -13 -20 -29 -10 -23 -21 -30 -55 -35 -190 -29 -381
-157 -496 -330 -91 -137 -123 -248 -130 -446 -1 -9 -18 -24 -38 -35 -50 -27
-199 -176 -250 -250 -37 -55 -103 -174 -103 -188 0 -3 -5 -18 -12 -34 -14 -35
-14 -34 -32 -113 -14 -64 -16 -288 -2 -335 3 -11 10 -40 16 -64 l11 -43 -71
-70 c-39 -38 -92 -101 -117 -139 -41 -64 -99 -180 -109 -218 -36 -139 -43
-193 -40 -301 3 -63 7 -131 11 -150 18 -100 84 -256 145 -345 62 -91 184 -205
275 -260 12 -8 17 -29 20 -95 14 -286 184 -555 433 -688 83 -43 177 -77 245
-88 23 -3 49 -8 57 -9 8 -2 36 -4 62 -4 46 -1 47 -1 92 -69 132 -199 332 -331
561 -370 68 -12 320 -5 320 8 0 1 8 3 17 5 43 8 129 41 188 72 86 46 157 102
229 179 l59 64 88 -88 c118 -117 262 -201 389 -227 22 -5 47 -10 55 -13 8 -2
65 -6 125 -8 289 -9 564 134 720 376 43 65 48 70 83 71 135 3 266 40 391 110
108 61 201 148 276 259 43 64 99 184 103 220 0 3 5 18 11 33 13 34 22 91 26
172 2 33 4 65 4 72 1 6 22 24 48 39 57 33 197 170 242 237 50 74 98 177 127
274 36 120 41 309 12 434 -41 175 -127 329 -251 451 l-70 68 19 68 c20 70 27
274 12 357 -10 55 -35 137 -53 172 -8 15 -15 33 -15 38 0 18 -114 187 -161
239 -42 47 -176 160 -199 168 -6 2 -12 38 -15 85 -2 46 -6 86 -8 90 -3 5 -8
25 -11 46 -9 56 -63 180 -106 245 -49 72 -175 202 -197 202 -3 0 -14 6 -22 14
-47 43 -229 112 -302 115 -10 1 -29 24 -44 53 -96 183 -265 320 -467 379 -92
26 -267 34 -353 15 -162 -36 -303 -117 -414 -238 l-43 -48 -26 32 c-37 47
-132 127 -199 167 -56 32 -159 73 -219 86 -34 8 -239 17 -245 11z m231 -340
c101 -37 196 -115 236 -193 10 -21 22 -40 26 -43 22 -17 35 -128 36 -315 0
-110 2 -202 3 -205 1 -3 0 -9 -1 -15 -3 -12 -2 -206 0 -220 1 -6 2 -12 1 -15
-1 -3 -3 -35 -5 -71 -11 -226 -171 -421 -407 -498 -60 -19 -70 -38 -71 -133 0
-126 1 -134 20 -157 9 -12 30 -24 45 -27 62 -11 265 68 360 141 25 19 48 35
50 35 2 0 4 -52 5 -115 0 -63 1 -118 2 -122 2 -5 1 -12 0 -18 -1 -5 -2 -39 -1
-75 1 -36 2 -71 2 -77 0 -7 0 -60 0 -118 0 -58 0 -112 0 -120 0 -8 0 -62 0
-120 0 -58 0 -112 0 -120 0 -8 0 -62 0 -120 0 -58 0 -112 0 -120 0 -8 0 -62 0
-120 0 -58 0 -112 0 -120 0 -8 0 -62 0 -120 0 -58 0 -112 0 -120 0 -8 0 -62 0
-120 0 -58 0 -111 0 -117 0 -7 0 -53 -1 -103 0 -49 0 -112 0 -140 2 -268 -32
-379 -154 -500 -111 -111 -235 -158 -394 -151 -224 11 -360 124 -467 391 -16
39 -32 74 -35 78 -4 4 -51 0 -106 -9 -58 -9 -124 -14 -160 -10 -66 5 -179 40
-205 62 -8 8 -21 14 -27 14 -7 0 -43 31 -81 69 -141 142 -181 294 -137 521 8
41 14 75 13 76 -1 0 -31 14 -67 31 -36 16 -68 31 -72 32 -11 2 -120 71 -138
87 -116 103 -165 178 -193 301 -15 61 -16 211 -2 278 8 41 55 153 74 177 73
92 142 151 256 221 33 20 66 40 73 45 9 6 3 28 -28 90 -22 46 -40 86 -40 91 0
4 -6 21 -14 37 -21 41 -28 78 -30 163 -10 262 121 445 409 576 87 40 84 35 63
117 -48 186 -13 334 106 454 92 92 184 126 344 129 56 1 106 6 110 11 8 8 46
126 43 131 0 2 17 36 38 77 65 125 141 190 253 220 67 18 208 14 268 -8z
m1216 1 c90 -33 155 -90 210 -182 30 -52 95 -231 86 -239 -7 -7 -12 -7 123
-10 83 -2 125 -8 170 -24 121 -44 210 -124 259 -233 49 -107 53 -183 16 -334
-17 -71 -17 -71 88 -121 266 -127 383 -289 386 -533 1 -134 -8 -165 -88 -330
-39 -81 -40 -80 24 -113 109 -57 228 -159 281 -241 58 -89 82 -174 84 -292 2
-136 -21 -228 -79 -319 -66 -103 -155 -173 -315 -249 -58 -28 -87 -47 -85 -57
1 -8 5 -33 9 -55 4 -22 10 -56 14 -75 13 -60 4 -176 -18 -243 -52 -155 -169
-272 -328 -329 -94 -33 -154 -33 -350 -2 -28 4 -34 1 -42 -18 -94 -242 -174
-349 -307 -412 -68 -32 -140 -45 -239 -41 -217 7 -386 135 -471 357 -14 36
-17 95 -20 381 -1 186 -5 344 -7 352 -3 7 -3 16 0 19 6 5 8 198 3 221 -1 6 -2
12 -1 15 1 3 2 160 1 350 0 190 -1 353 -1 363 0 9 1 64 2 121 1 58 -2 109 -6
115 -3 6 -3 11 2 11 7 0 8 258 2 378 -3 50 3 59 24 37 9 -8 19 -15 23 -15 4 0
21 -10 38 -23 68 -51 215 -111 303 -123 36 -5 46 -2 68 20 27 27 27 28 27 136
0 104 -1 106 -19 129 -10 12 -48 32 -85 45 -187 68 -317 213 -365 408 -3 13
-7 95 -8 184 -2 88 -5 164 -6 170 -1 5 0 14 1 19 2 14 2 208 0 220 -1 6 -2 12
-1 15 1 3 3 52 5 110 4 110 13 167 27 176 5 3 9 11 9 19 0 20 59 104 100 144
47 44 108 80 178 101 68 22 214 20 278 -3z"/>
<path d="M1497 2463 c-15 -21 -30 -47 -33 -59 -6 -22 -10 -22 -167 -26 -142
-3 -167 -6 -202 -25 -76 -40 -104 -87 -107 -178 -2 -57 10 -81 49 -96 19 -7
23 -16 24 -56 1 -27 1 -51 0 -55 0 -3 7 -30 15 -59 48 -160 152 -264 347 -349
72 -32 80 -33 115 -21 258 89 411 266 412 479 0 49 2 54 29 63 36 13 49 41 45
105 -3 77 -31 120 -109 169 -25 16 -56 20 -188 25 l-159 5 21 27 c27 34 27 53
-1 72 -35 25 -61 19 -91 -21z m356 -188 c40 -17 67 -59 58 -90 -6 -20 -14 -20
-401 -18 -217 0 -400 2 -406 2 -13 1 -6 46 11 72 30 47 39 48 380 49 267 0
328 -2 358 -15z m-17 -253 c4 -144 -78 -269 -223 -344 -93 -49 -106 -52 -150
-32 -21 10 -40 18 -43 18 -3 1 -26 14 -51 29 -83 49 -151 136 -183 231 -9 27
-18 134 -13 143 3 5 153 8 334 8 l328 0 1 -53z"/>
<path d="M3740 2683 c-79 -26 -133 -70 -169 -138 -18 -33 -26 -40 -56 -41
-139 -8 -249 -116 -249 -245 0 -33 -2 -59 -6 -59 -3 0 -22 -16 -42 -35 -100
-97 -100 -244 0 -341 69 -67 120 -79 334 -78 l175 0 1 -67 c1 -63 -2 -72 -40
-131 -42 -64 -49 -95 -26 -109 7 -5 75 -9 151 -9 139 0 167 7 167 40 0 10 -28
60 -40 70 -3 3 -15 21 -26 40 -15 26 -20 50 -18 95 1 33 2 63 3 66 0 3 81 6
179 6 106 0 194 5 219 12 61 17 124 69 156 128 30 57 35 107 17 172 -13 48
-74 131 -96 131 -15 0 -16 3 -16 70 1 77 -46 157 -121 205 -30 19 -121 44
-148 40 -11 -2 -23 11 -34 35 -41 90 -138 150 -240 149 -33 0 -67 -3 -75 -6z
m180 -159 c23 -22 25 -32 25 -104 0 -44 3 -80 6 -80 4 0 27 9 52 20 76 34 126
31 183 -10 49 -36 59 -101 25 -168 -12 -23 -21 -43 -21 -45 0 -4 20 -10 79
-23 36 -8 93 -89 87 -125 -10 -60 -38 -95 -88 -113 -51 -17 -881 -15 -923 2
-16 7 -41 28 -54 47 -19 29 -23 43 -18 82 6 58 45 97 112 114 49 12 54 22 28
59 -11 15 -17 44 -18 76 0 45 4 57 29 83 50 52 94 58 185 24 48 -17 66 -20 72
-12 4 7 5 17 3 23 -20 59 -7 126 33 163 22 21 34 26 88 36 28 5 85 -19 115
-49z"/>
</g>
</svg>
