<svg width="640" height="512" xmlns="http://www.w3.org/2000/svg" xmlns:svg="http://www.w3.org/2000/svg" xmlns:xlink="http://www.w3.org/1999/xlink">
 <title>hands-leaf</title>
 <g>
  <title>Layer 1</title>
  <g id="svg_4"/>
  <g id="svg_7"/>
  <g id="svg_10"/>
  <g id="svg_11">
   <path fill="#7f3f00" id="svg_1" d="m220,248.800003c-14,-19.199997 -49.100006,-31.400009 -74.5,-3.900009c-15.600006,16.800018 -15.899994,42.800018 -2.5,61.300018l28.600006,39.299988c6.5,8.899994 -6.5,19.100006 -13.600006,10.700012l-62,-73.300018l0,-137.099991c0,-26 -21.199997,-49.300003 -47.200001,-49.700005c-26.9,-0.5 -48.799999,21.099998 -48.799999,47.900002l0,170.399994c0,10.899994 3.7,21.5 10.5,30l107,133.699982c5.400002,6.800018 8.900002,17.5 10.099998,27c0.500008,4 4.000008,6.900024 8.000008,6.900024l16,0c4.799988,0 8.5,-3.900024 8,-8.700012c-1.600006,-16 -7.5,-33.299988 -17.100006,-45.200012l-107,-133.699982c-2.299999,-2.800018 -3.5,-6.399994 -3.5,-10l0,-170.399994c0,-21 32,-21.599998 32,0.699997l0,149.699997l64.600006,77.5c36.899994,44.200012 96.799988,-2.699982 70.799988,-42.399994c-0.199997,-0.299988 -0.399994,-0.5 -0.5,-0.799988l-30.599991,-42.200012c-4.699997,-6.5 -4.199997,-16.700012 3.5,-22.299988c7,-5.100006 17.099991,-3.800018 22.399994,3.5l42.400009,58.399994c12.699997,16.899994 19.5,37.399994 19.5,58l0,120c0,4.399994 3.600006,7.999969 8,7.999969l16,0c4.399994,0 8,-3.599976 8,-7.999969l0,-120c0,-27.700012 -9,-54.600006 -25.600006,-76.800018l-42.5,-58.499985zm420,-104.800003c0,-26.800003 -21.900024,-48.400002 -48.799988,-48c-26,0.400002 -47.200012,23.699997 -47.200012,49.699997l0,137.100021l-62,73.299988c-7.100006,8.399994 -20.100006,-1.699982 -13.600006,-10.699982l28.600006,-39.300018c13.399994,-18.5 13.100006,-44.600006 -2.5,-61.300003c-25.5,-27.399994 -60.600006,-15.299988 -74.5,3.900009l-42.399994,58.399994c-16.600006,22.199982 -25.600006,49.199982 -25.600006,76.899994l0,120c0,4.399994 3.600006,8 8,8l16,0c4.399994,0 8,-3.600006 8,-8l0,-120c0,-20.600006 6.799988,-41.100006 19.5,-58l42.399994,-58.399994c5.300018,-7.300018 15.300018,-8.700012 22.399994,-3.5c7.800018,5.600006 8.300018,15.799988 3.5,22.299988l-30.599976,42.200012c-0.200012,0.299988 -0.400024,0.5 -0.5,0.799988c-26.100006,39.700012 33.899994,86.700012 70.799988,42.399994l64.599976,-77.5l0,-149.699982c0,-22.299995 32,-21.699997 32,-0.699997l0,170.399979c0,3.600006 -1.199951,7.200012 -3.5,10l-106.999969,133.700012c-9.5,11.899994 -15.5,29.200012 -17.100006,45.200012c-0.5,4.799988 3.200012,8.699982 8,8.699982l16,0c4,0 7.5,-2.899994 8,-6.899994c1.200012,-9.600006 4.600037,-20.200012 10.100037,-27l107,-133.700012c6.799988,-8.5 10.5,-19.099976 10.5,-30l-0.100037,-170.299988z"/>
   <use fill="#007f00" x="389.600705" y="20.092229" transform="matrix(0.47019 0 0 0.474727 -15.4257 -7.78927)" xlink:href="#svg_8" id="svg_9"/>
  </g>
 </g>
 <defs>
  <symbol id="svg_8" viewBox="0 0 384 512" xmlns="http://www.w3.org/2000/svg">
   <path d="m384,312.700012c-55.100006,136.700012 -187.100006,54 -187.100006,54c-40.5,81.800018 -107.400002,134.399994 -184.600004,134.700012c-16.1,0 -16.6,-24.400024 0,-24.400024c64.4,-0.299988 120.499998,-42.699982 157.199995,-110.099976c-41.099991,15.899994 -118.599995,27.899994 -161.600005,-82.200012c108.999999,-44.900009 159.100005,11.200012 178.300002,45.5c9.899994,-24.399994 17,-50.899994 21.599991,-79.699997c0,0 -139.699982,21.900009 -149.499992,-98.099991c119.099998,-47.900002 152.600014,76.699997 152.600014,76.699997c1.599991,-16.700012 3.300003,-52.600006 3.300003,-53.400009c0,0 -106.300011,-73.699989 -38.100006,-165.199992c124.599991,42.999999 61.399994,162.399989 61.399994,162.399989c0.5,1.600006 0.5,23.800003 0,33.399994c0,0 45.199997,-88.999992 136.400009,-57.5c-4.200012,134.000015 -141.900009,106.400009 -141.900009,106.400009c-4.399994,27.399994 -11.199997,53.399994 -20,77.5c0,0 83.000015,-91.800003 172.000015,-20z"/>
  </symbol>
 </defs>
</svg>