<svg width="544" height="512" xmlns="http://www.w3.org/2000/svg" xmlns:svg="http://www.w3.org/2000/svg" xmlns:xlink="http://www.w3.org/1999/xlink">
 <g class="layer">
  <title>Layer 1</title>
  <path d="m509.65,230.28c17.51,-54.46 -20.08,-93.16 -41.06,-105.31c2.67,-37.66 -25.86,-74.32 -66.68,-79.39c-11.95,-27.35 -39.11,-45.58 -69.69,-45.58c-24.59,0 -46.26,11.85 -60.22,29.9c-13.96,-18.05 -35.63,-29.9 -60.22,-29.9c-30.58,0 -57.74,18.23 -69.7,45.58c-40.82,5.07 -69.35,41.73 -66.68,79.39c-20.98,12.16 -58.56,50.85 -41.06,105.31c-21.45,17.14 -34.34,43.16 -34.34,70.72c0,32.73 17.41,62.38 45.26,78.53c-2.28,48.18 36.69,88.69 84.94,87.45c14.24,27.38 42.59,45.02 74.05,45.02c27.9,0 52.51,-13.8 67.75,-34.76c15.24,20.96 39.85,34.76 67.75,34.76c31.46,0 59.81,-17.64 74.05,-45.02c48.25,1.24 87.21,-39.28 84.94,-87.45c27.85,-16.15 45.26,-45.8 45.26,-78.53c0,-27.56 -12.89,-53.58 -34.35,-70.72zm-253.71,-92.21c0,26.09 -18.06,47.88 -42.35,54.04c-3.47,0.88 -5.83,4.09 -5.83,7.66l0,16.18c0,5.07 4.69,8.91 9.68,7.89c14.43,-2.94 27.54,-9.41 38.5,-18.39l0,223.05c0,28.39 -23.18,51.5 -51.69,51.5c-31.89,0 -44.23,-21.81 -53.1,-48.2c-16.29,2.74 -18.29,3.2 -22.18,3.2c-28.51,0 -51.69,-23.11 -51.69,-51.5c0,-6.21 0.86,-9.14 3.67,-22.97c-25.44,-10.5 -48.84,-24.21 -48.84,-59.53c0,-33.86 23.01,-46.95 42.91,-58.34c-12.6,-25.71 -12.8,-29.2 -12.8,-39.16c0,-33.91 21.9,-48.46 49.37,-59.69c-2.51,-10.9 -4.2,-16.61 -4.2,-22.81c0,-24.14 19.6,-43.8 45.48,-43.8l0.41,0l12.73,0.27c5.91,-22.95 15.03,-45.47 45.77,-45.47c24.34,0 44.16,19.73 44.16,44l0,62.07zm207.11,222.46c2.81,13.83 3.67,16.76 3.67,22.97c0,28.39 -23.18,51.5 -51.69,51.5c-3.88,0 -5.88,-0.46 -22.18,-3.2c-8.87,26.39 -21.21,48.2 -53.1,48.2c-28.51,0 -51.69,-23.11 -51.69,-51.5l0,-223.05c10.96,8.98 24.07,15.45 38.5,18.39c4.99,1.02 9.68,-2.82 9.68,-7.89l0,-16.18c0,-3.57 -2.36,-6.78 -5.83,-7.66c-24.29,-6.16 -42.35,-27.95 -42.35,-54.04l0,-62.07c0,-24.27 19.82,-44 44.16,-44c30.74,0 39.86,22.52 45.76,45.47l12.73,-0.27l0.41,0c25.88,0 45.48,19.66 45.48,43.8c0,6.2 -1.7,11.92 -4.2,22.81c27.46,11.22 49.37,25.78 49.37,59.69c0,9.96 -0.2,13.45 -12.8,39.16c19.9,11.39 42.91,24.48 42.91,58.34c0,35.33 -23.39,49.04 -48.83,59.53z" fill="#ff7f00" id="svg_1"/>
  <g id="svg_4"/>
  <use fill="#7f0000" id="svg_6" transform="matrix(0.158117 0 0 0.158117 111.111 114.677)" x="215.03021" xlink:href="#svg_5" y="-183.40812"/>
  <g id="svg_7"/>
  <use fill="#7f007f" id="svg_9" transform="matrix(0.304456 0 0 0.322275 133.819 187.284)" x="-221.04315" xlink:href="#svg_8" y="138.49168"/>
  <g id="svg_10"/>
  <use fill="#3f7f00" id="svg_12" transform="matrix(0.3011 0 0 0.3011 225.338 208.016)" x="270.49907" xlink:href="#svg_11" y="95.48129"/>
  <g id="svg_13"/>
  <use fill="#7f7f00" id="svg_15" transform="matrix(0.15424 0 0 0.15424 349.58 120.609)" x="-200.98596" xlink:href="#svg_14" y="-207.46938"/>
  <g id="svg_16"/>
 </g>
 <defs>
  <symbol id="svg_5" viewBox="0 0 448 512" xmlns="http://www.w3.org/2000/svg">
   <path d="m352,64l-100.5,0c3.4,-9.4 8.47,-18.18 15.16,-26.04c5.56,-6.52 5.31,-15.91 -0.62,-21.86l-11.35,-11.32c-3.12,-3.16 -7.72,-5.14 -11.97,-4.72c-4.38,0.14 -8.5,2.08 -11.31,5.3c-14.75,16.8 -24.55,37.06 -29.39,58.65l-106.02,0c-53.02,0 -96,42.98 -96,96l0,32c0,17.67 14.33,32 32,32l0,32c0,98.06 55.4,187.7 143.11,231.55l48.89,24.44l48.89,-24.45c87.71,-43.85 143.11,-133.49 143.11,-231.55l0,-32c17.67,0 32,-14.33 32,-32l0,-32c0,-53.02 -42.98,-96 -96,-96zm-304,96c0,-26.47 21.53,-48 48,-48l256,0c26.47,0 48,21.53 48,48l0,16l-352,0l0,-16zm320,96c0,80.39 -44.67,152.67 -116.57,188.62l-27.43,13.71l-27.43,-13.71c-71.9,-35.95 -116.57,-108.23 -116.57,-188.62l0,-32l288,0l0,32z"/>
  </symbol>
  <symbol id="svg_8" viewBox="0 0 256 512" xmlns="http://www.w3.org/2000/svg">
   <path d="m251.1,436.3l-19.1,-13.9l0,-26.4c0,-6.6 -5.4,-12 -12,-12l-15.9,0c-17,-48.1 -14.2,-103.9 -14.2,-127.8l0,-0.2l26.1,0c6.6,0 12,-5.4 12,-12l0,-8c0,-6.6 -5.4,-12 -12,-12l-21.9,0l31.5,-96.5c5.1,-15.5 -6.5,-31.5 -22.8,-31.5l-49,0l0,-27.2l19.8,0c3.3,0 6,-2.7 6,-6l0,-22.4c0,-3.3 -2.7,-6 -6,-6l-28.4,0l0,-28.4c0,-3.3 -2.7,-6 -6,-6l-22.4,0c-3.3,0 -6,2.7 -6,6l0,28.4l-28.4,0c-3.3,0 -6,2.7 -6,6l0,22.4c0,3.3 2.7,6 6,6l19.8,0l0,27.2l-49,0c-16.3,0 -27.9,15.9 -22.8,31.5l31.5,96.5l-21.9,0c-6.6,0 -12,5.4 -12,12l0,8c0,6.6 5.4,12 12,12l26.1,0l0,0.2c0,22.9 2.9,79.3 -14.2,127.8l-15.9,0c-6.6,0 -12,5.4 -12,12l0,26.4l-19.1,13.9c-3.1,2.2 -4.9,5.8 -4.9,9.7l0,54c0,6.6 5.4,12 12,12l232,0c6.6,0 12,-5.4 12,-12l0,-54c0,-3.9 -1.8,-7.5 -4.9,-9.7zm-186.9,-308.3l127.5,0l-31.4,96l-64.7,0l-31.4,-96zm33.9,128.2l0,-0.2l59.9,0l0,0.2c0,26.3 -2.3,78.1 12.5,127.8l-85,0c15.1,-50.4 12.6,-102.3 12.6,-127.8zm125.9,223.8l-192,0l0,-23.9l24,-17.5l0,-22.6l144,0l0,22.7l24,17.5l0,23.8z"/>
  </symbol>
  <symbol id="svg_11" viewBox="0 0 288 512" xmlns="http://www.w3.org/2000/svg">
   <path d="m211.9,242.1l-116.3,-33.2c-15.8,-4.5 -28.6,-17.2 -31.1,-33.5c-3.9,-25.4 15.8,-47.4 40.5,-47.4l73.8,0c15.9,0 31.5,5 44.4,14.1c6.4,4.5 15,3.8 20.5,-1.7l22.9,-22.9c6.8,-6.8 6.1,-18.2 -1.5,-24.1c-24.7,-19.1 -54.7,-29.4 -86.3,-29.4l-2.8,0l0,-48c0,-8.8 -7.2,-16 -16,-16l-32,0c-8.8,0 -16,7.2 -16,16l0,48l-2.5,0c-49.2,0 -94.6,31.8 -106.4,79.6c-13.9,56.2 20.2,111.2 73,126.3l116.3,33.2c15.8,4.5 28.6,17.2 31.1,33.5c3.9,25.4 -15.8,47.4 -40.5,47.4l-73.8,0c-15.9,0 -31.5,-5 -44.4,-14.1c-6.4,-4.5 -15,-3.8 -20.5,1.7l-22.9,22.9c-6.8,6.8 -6.1,18.2 1.5,24.1c24.6,19.1 54.6,29.4 86.3,29.4l2.8,0l0,48c0,8.8 7.2,16 16,16l32,0c8.8,0 16,-7.2 16,-16l0,-48l2.5,0c49.2,0 94.6,-31.8 106.4,-79.6c13.9,-56.2 -20.2,-111.2 -73,-126.3z"/>
  </symbol>
  <symbol id="svg_14" viewBox="0 0 640 512" xmlns="http://www.w3.org/2000/svg">
   <path d="m576,196.6l0,-68.6c0,-53 -43,-96 -96,-96l-320,0c-53,0 -96,43 -96,96l0,68.6c-34.6,10.7 -60.9,40.3 -63.7,76.4c-2.3,29 9.6,56.5 31.7,74.6l0,92.4c0,22.1 17.9,40 40,40l88,0c4,0 30.2,-0.9 31.9,-32l256.2,0c1.4,30.8 28,32 31.9,32l88,0c22.1,0 40,-17.9 40,-40l0,-92.4c22,-18.1 34,-45.5 31.7,-74.6c-2.8,-36.1 -29.1,-65.7 -63.7,-76.4zm-432,235.4l-64,0l0,-110.7l-11.9,-7c-13.5,-7.8 -21.1,-22.3 -19.9,-37.6c1.5,-20.2 21.2,-36.7 43.8,-36.7l12,0c22.1,0 40,17.9 40,40l0,152zm304,-128l0,96l-256,0l0,-96l256,0zm3.7,-48l-263.5,0c-9.8,-34.3 -39.7,-59.8 -76.2,-63.2l0,-64.8c0,-26.5 21.5,-48 48,-48l320,0c26.5,0 48,21.5 48,48l0,64.8c-36.6,3.4 -66.5,28.9 -76.3,63.2zm120.2,58.4l-11.9,7l0,110.6l-64,0l0,-152c0,-22.1 17.9,-40 40,-40l12,0c22.6,0 42.3,16.5 43.9,36.8c1.1,15.3 -6.5,29.7 -20,37.6z"/>
  </symbol>
 </defs>
</svg>